<svg id="visual" viewBox="0 0 1920 1080" width="1920" height="1080" xmlns="http://www.w3.org/2000/svg" xmlns:xlink="http://www.w3.org/1999/xlink" version="1.1"><rect x="0" y="0" width="1920" height="1080" fill="#f2f2f2"></rect><defs><linearGradient id="grad1_0" x1="43.8%" y1="100%" x2="100%" y2="0%"><stop offset="14.444444444444446%" stop-color="#f2f2f2" stop-opacity="1"></stop><stop offset="85.55555555555554%" stop-color="#f2f2f2" stop-opacity="1"></stop></linearGradient></defs><defs><linearGradient id="grad2_0" x1="0%" y1="100%" x2="56.3%" y2="0%"><stop offset="14.444444444444446%" stop-color="#f2f2f2" stop-opacity="1"></stop><stop offset="85.55555555555554%" stop-color="#f2f2f2" stop-opacity="1"></stop></linearGradient></defs><g transform="translate(1920, 1080)"><path d="M-378 0C-321.1 -29.6 -264.2 -59.2 -249.4 -103.3C-234.7 -147.4 -262.2 -206 -251.7 -251.7C-241.3 -297.5 -192.9 -330.3 -144.7 -349.2C-96.4 -368.1 -48.2 -373.1 0 -378L0 0Z" fill="#8685EF"></path></g><g transform="translate(0, 0)"><path d="M378 0C324.8 31.9 271.5 63.7 254.1 105.2C236.6 146.8 254.8 198 243.2 243.2C231.6 288.5 190.2 327.8 144.7 349.2C99.1 370.7 49.6 374.3 0 378L0 0Z" fill="#8685EF"></path></g></svg>