<svg id="visual" viewBox="0 0 900 600" width="900" height="600" xmlns="http://www.w3.org/2000/svg" xmlns:xlink="http://www.w3.org/1999/xlink" version="1.1"><rect x="0" y="0" width="900" height="600" fill="#001220"></rect><defs><linearGradient id="grad1_0" x1="33.3%" y1="0%" x2="100%" y2="100%"><stop offset="20%" stop-color="#001220" stop-opacity="1"></stop><stop offset="80%" stop-color="#001220" stop-opacity="1"></stop></linearGradient></defs><defs><linearGradient id="grad2_0" x1="0%" y1="0%" x2="66.7%" y2="100%"><stop offset="20%" stop-color="#001220" stop-opacity="1"></stop><stop offset="80%" stop-color="#001220" stop-opacity="1"></stop></linearGradient></defs><g transform="translate(900, 0)"><path d="M0 189.3C-16.9 178.6 -33.7 167.9 -53.2 163.6C-72.6 159.3 -94.5 161.5 -111.3 153.1C-128 144.8 -139.7 126 -148.9 108.2C-158.1 90.3 -164.9 73.5 -171.2 55.6C-177.5 37.8 -183.4 18.9 -189.3 0L0 0Z" fill="#FBAE3C"></path></g><g transform="translate(0, 600)"><path d="M0 -189.3C14.6 -171.8 29.3 -154.4 49.1 -151.2C69 -148.1 94.1 -159.3 111.3 -153.1C128.4 -147 137.7 -123.5 142.4 -103.5C147 -83.4 147 -66.7 154.1 -50.1C161.1 -33.4 175.2 -16.7 189.3 0L0 0Z" fill="#FBAE3C"></path></g></svg>