<?xml version="1.0" standalone="no"?>
<!DOCTYPE svg PUBLIC "-//W3C//DTD SVG 20010904//EN"
 "http://www.w3.org/TR/2001/REC-SVG-20010904/DTD/svg10.dtd">
<svg version="1.0" xmlns="http://www.w3.org/2000/svg"
 width="512.000000pt" height="512.000000pt" viewBox="0 0 512.000000 512.000000"
 preserveAspectRatio="xMidYMid meet">

<g transform="translate(0.000000,512.000000) scale(0.100000,-0.100000)"
fill="#000000" stroke="none">
<path d="M1810 4970 l0 -150 -301 0 -301 0 4 -292 c4 -266 7 -300 27 -366 91
-305 352 -529 648 -558 73 -7 73 -7 106 -53 19 -25 78 -100 133 -166 148 -178
201 -251 242 -334 36 -74 37 -77 40 -213 l4 -138 -151 0 -151 0 0 -150 0 -150
450 0 450 0 0 150 0 150 -151 0 -151 0 4 138 c3 136 4 139 40 213 41 83 94
156 242 334 55 66 114 141 133 166 33 46 34 46 104 53 246 25 463 175 588 406
77 143 84 186 89 518 l4 292 -301 0 -301 0 0 150 0 150 -750 0 -750 0 0 -150z
m1198 -582 c-3 -415 -4 -435 -24 -490 -29 -75 -78 -147 -202 -298 -57 -69
-128 -158 -159 -197 -30 -40 -59 -73 -63 -73 -4 0 -33 33 -63 73 -31 39 -104
131 -163 202 -119 145 -163 208 -196 287 -22 52 -23 63 -26 491 l-3 437 451 0
451 0 -3 -432z m-1196 -160 c2 -161 2 -295 0 -298 -8 -12 -104 51 -158 105
-104 103 -144 209 -144 382 l0 103 149 0 150 0 3 -292z m1798 189 c0 -173 -40
-279 -144 -382 -54 -54 -150 -117 -158 -105 -2 3 -2 137 0 298 l3 292 150 0
149 0 0 -103z"/>
<path d="M798 3501 c-125 -256 -138 -279 -164 -285 -16 -3 -159 -24 -319 -47
-159 -22 -291 -42 -293 -43 -3 -4 105 -108 310 -301 82 -77 148 -146 148 -154
0 -8 -23 -147 -51 -309 -27 -162 -49 -296 -47 -298 2 -1 128 63 281 143 l278
145 277 -145 c152 -80 278 -144 280 -142 2 1 -21 141 -50 311 l-52 308 229
223 c126 123 223 223 215 223 -28 1 -609 88 -617 93 -5 3 -69 130 -142 281
-74 152 -137 276 -141 276 -4 0 -68 -126 -142 -279z m187 -480 l38 -79 63 -7
c35 -3 75 -10 89 -13 25 -7 24 -8 -38 -70 l-64 -63 13 -72 c21 -117 25 -113
-66 -67 l-81 41 -76 -40 c-42 -22 -79 -39 -81 -36 -2 2 2 42 10 89 l15 85 -64
63 c-72 72 -74 69 48 82 l66 7 38 80 c22 43 42 79 45 79 3 0 23 -36 45 -79z"/>
<path d="M4038 3501 c-124 -255 -138 -279 -164 -285 -33 -7 -582 -86 -597 -86
-6 0 92 -100 218 -223 l229 -223 -52 -308 c-29 -170 -51 -310 -50 -312 2 -1
128 63 281 143 l278 145 277 -145 c152 -80 278 -144 280 -142 2 1 -21 141 -50
311 l-52 308 229 223 c126 123 223 223 215 223 -28 1 -609 88 -617 93 -5 3
-69 130 -142 281 -74 152 -137 276 -141 276 -4 0 -68 -126 -142 -279z m187
-480 l38 -79 63 -7 c35 -3 75 -10 89 -13 25 -7 24 -8 -38 -70 l-64 -63 13 -72
c21 -117 25 -113 -66 -67 l-81 41 -76 -40 c-42 -22 -79 -39 -81 -36 -2 2 3 41
10 87 l15 83 -65 66 -64 67 89 12 90 12 39 79 c21 44 41 79 44 79 3 0 23 -36
45 -79z"/>
<path d="M1510 1800 l0 -300 -755 0 -755 0 0 -750 0 -750 2560 0 2560 0 0 600
0 600 -755 0 -755 0 0 450 0 450 -1050 0 -1050 0 0 -300z m1800 -750 l0 -750
-750 0 -750 0 0 750 0 750 750 0 750 0 0 -750z m-1800 -300 l0 -450 -605 0
-605 0 0 450 0 450 605 0 605 0 0 -450z m3310 -150 l0 -300 -605 0 -605 0 0
300 0 300 605 0 605 0 0 -300z"/>
<path d="M2110 1350 l0 -150 150 0 150 0 0 -150 0 -150 -150 0 -150 0 0 -150
0 -150 450 0 450 0 0 150 0 150 -150 0 -150 0 0 300 0 300 -300 0 -300 0 0
-150z"/>
</g>
</svg>
